<?xml version="1.0" encoding="UTF-8"?>
<svg xmlns="http://www.w3.org/2000/svg" version="1.1" viewBox="0 0 24 24">
  <!-- Generator: Adobe Illustrator 28.7.1, SVG Export Plug-In . SVG Version: 1.2.0 Build 142)  -->
  <g>
    <g id="Laag_1">
      <path d="M16.2,2.6c-1.5,0-3,.6-4.2,1.6-1.1-1-2.6-1.6-4.2-1.6-3.5,0-6.3,2.8-6.3,6.3,0,1.6.6,3.1,1.7,4.3l8.4,8.1c0,0,.2.1.4.1.1,0,.3,0,.4-.1l8.4-8.1c2.4-2.5,2.2-6.5-.3-8.9-1.2-1.1-2.7-1.7-4.3-1.7ZM20,12.4l-8,7.8L4,12.4c-1.9-2.2-1.7-5.5.5-7.4,2.1-1.8,5.2-1.7,7.1.2.2.2.5.2.7,0,0,0,0,0,0,0,1-1.1,2.4-1.7,3.8-1.7,2.9,0,5.2,2.3,5.2,5.2,0,1.3-.5,2.6-1.4,3.6Z"/>
    </g>
  </g>
</svg>