<?xml version="1.0" encoding="UTF-8"?>
<svg xmlns="http://www.w3.org/2000/svg" version="1.1" viewBox="0 0 24 24">
  <!-- Generator: Adobe Illustrator 28.7.1, SVG Export Plug-In . SVG Version: 1.2.0 Build 142)  -->
  <g>
    <g id="Laag_1">
      <path d="M20.9,20.1l-4.6-4.6c1.1-1.3,1.8-3,1.8-4.9,0-4.2-3.4-7.5-7.5-7.5s-7.5,3.4-7.5,7.5,3.4,7.5,7.5,7.5,3.6-.7,4.9-1.8l4.6,4.6c.1.1.3.2.4.2s.3,0,.4-.2c.2-.2.2-.6,0-.8ZM10.5,17c-3.5,0-6.4-2.9-6.4-6.4s2.9-6.4,6.4-6.4,6.4,2.9,6.4,6.4-2.9,6.4-6.4,6.4Z"/>
    </g>
  </g>
</svg>