<?xml version="1.0" encoding="UTF-8"?>
<svg xmlns="http://www.w3.org/2000/svg" version="1.1" viewBox="0 0 24 24">
  <!-- Generator: Adobe Illustrator 28.7.1, SVG Export Plug-In . SVG Version: 1.2.0 Build 142)  -->
  <g>
    <g id="Laag_1">
      <g>
        <path d="M12,11c2.3,0,4.2-1.9,4.2-4.2h0c0-2.3-1.9-4.2-4.2-4.2-2.3,0-4.2,1.9-4.2,4.2h0c0,2.3,1.9,4.2,4.2,4.2ZM12,3.5c1.7,0,3.2,1.3,3.2,3.1,0,0,0,0,0,.1,0,1.8-1.4,3.2-3.2,3.2-1.8,0-3.2-1.4-3.2-3.2,0-1.7,1.3-3.2,3.1-3.2,0,0,0,0,.1,0Z"/>
        <path d="M12,12.5c-4.8,0-8.9,3.6-9.5,8.4,0,.2,0,.3.1.4,0,.1.2.2.3.2h17.9c.1,0,.3,0,.3-.2.1,0,.1-.2.1-.4-.5-4.8-4.6-8.4-9.5-8.4ZM3.7,20.5c.7-4,4.2-7,8.3-7,4.1,0,7.6,2.9,8.3,7H3.7Z"/>
      </g>
    </g>
  </g>
</svg>